<svg version="1.1" id="Layer_1" xmlns="http://www.w3.org/2000/svg" xmlns:xlink="http://www.w3.org/1999/xlink" x="0px" y="0px"
	 width="100%" viewBox="0 0 817 817" enable-background="new 0 0 817 817" xml:space="preserve">
<path fill="#000000" opacity="1.000000" stroke="none" 
	d="
M1.000000,817.000000 
	C1.000000,545.068665 1.000000,273.137299 1.000000,1.000000 
	C272.696014,1.000000 544.392090,1.000000 816.544067,1.468657 
	C817.000000,273.475006 817.000000,545.012695 817.000000,817.000000 
	C544.493896,817.000000 272.746948,817.000000 1.000000,817.000000 
M396.957062,588.203308 
	C397.559662,576.938354 393.345184,567.723755 383.751678,561.977722 
	C372.941162,555.502686 373.079163,534.512390 383.892731,528.573181 
	C386.981201,526.876892 389.686371,524.013916 391.823059,521.133728 
	C401.605743,507.947296 416.718079,507.859863 426.186981,521.150635 
	C437.326263,536.785889 460.664978,537.039978 471.997955,521.649353 
	C481.690460,508.486481 478.392853,490.962097 464.353882,481.026520 
	C453.195129,473.129303 452.662140,455.534119 464.001984,448.273346 
	C481.765198,436.899750 481.843201,410.794312 463.696167,399.460388 
	C453.014954,392.789276 453.382996,375.231079 463.339294,367.480560 
	C467.211914,364.465942 470.777161,360.853210 473.788025,356.973969 
	C481.982605,346.415924 498.700531,346.460236 506.406006,357.339081 
	C519.032959,375.166199 541.468018,375.472626 554.015381,357.817017 
	C559.045105,350.739746 565.743652,348.623444 573.975220,349.421692 
	C580.762634,350.079865 584.835876,354.200317 588.727356,359.322083 
	C596.199524,369.156525 606.429138,372.784760 618.357239,369.752289 
	C629.444641,366.933563 636.670654,359.433044 638.794617,348.184631 
	C641.056763,336.204742 637.119263,326.114349 626.838135,319.084564 
	C614.230774,310.464294 596.329041,313.519470 588.201416,326.751709 
	C580.532654,339.236938 559.371277,338.240112 553.634399,326.788666 
	C552.034729,323.595490 548.551697,321.146118 545.521606,318.913269 
	C540.172119,314.971313 537.355652,310.033997 537.120300,303.328552 
	C536.844788,295.477081 539.710510,289.595581 546.292969,285.179749 
	C555.200256,279.204285 559.179626,270.464752 558.345032,259.910614 
	C557.366821,247.541290 549.183228,237.891739 537.989380,234.970840 
	C525.671387,231.756592 513.749451,235.432999 507.119751,246.519226 
	C500.150360,258.173401 479.601593,257.504639 472.732666,246.538818 
	C461.707855,228.938446 436.380646,229.375916 425.629395,247.230576 
	C419.748047,256.997742 399.463745,258.320770 393.280365,248.040390 
	C381.565918,228.563980 354.407349,230.045761 343.993591,247.965271 
	C337.761597,258.689026 317.113892,256.641602 311.826477,247.216446 
	C301.660828,229.095383 274.955078,229.373703 263.975372,247.028168 
	C260.665985,252.349335 256.163055,254.749527 250.071686,255.187256 
	C241.504974,255.802917 235.168427,252.865936 230.143448,245.610184 
	C222.320999,234.315063 207.800751,230.814087 195.514526,236.470505 
	C183.382065,242.056137 176.905716,255.626343 180.045853,268.882874 
	C183.028793,281.475830 194.717224,290.463165 207.901413,290.157318 
	C217.739883,289.929047 225.378494,285.613647 231.012146,277.527771 
	C239.537582,265.291412 255.990677,265.562073 264.414368,277.752289 
	C266.535370,280.821716 269.410095,283.709839 272.571259,285.650391 
	C279.168884,289.700470 281.611328,295.380585 281.504120,302.801483 
	C281.398834,310.088898 278.315674,315.305176 272.307037,319.450531 
	C260.733856,327.434875 256.998993,341.780121 262.729187,354.399567 
	C268.172272,366.386719 281.372803,372.877136 294.611725,369.986603 
	C302.326019,368.302338 307.933472,363.711334 312.412201,357.303864 
	C320.288055,346.036285 337.394226,346.458038 344.962341,357.677917 
	C347.235535,361.047974 350.289337,364.112427 353.557098,366.550964 
	C365.148438,375.200745 365.326691,391.668457 353.667603,400.024445 
	C336.097931,412.616577 336.165985,435.254517 353.811462,447.867554 
	C365.225067,456.025970 365.199341,472.867035 353.760986,480.950378 
	C336.162811,493.386749 336.134674,516.673706 353.790955,528.768982 
	C358.325470,531.875366 361.219696,535.931091 361.852753,541.324036 
	C362.892090,550.178345 360.662598,557.392212 352.668762,562.873291 
	C336.715576,573.812012 336.608826,597.202576 352.174744,608.517273 
	C369.865997,621.376831 394.256897,610.475830 396.957062,588.203308 
M212.982132,329.379059 
	C204.931641,324.564026 197.223312,325.143738 191.577896,330.988831 
	C186.535645,336.209412 185.644302,344.720093 189.657288,350.805359 
	C193.278336,356.296356 198.495941,358.776215 205.023941,358.017090 
	C211.526596,357.260895 216.085922,353.806152 218.224716,347.492157 
	C220.559296,340.600128 218.798340,334.765930 212.982132,329.379059 
M453.647644,600.408081 
	C460.792297,596.524902 463.967285,590.695618 462.969971,583.292419 
	C462.143951,577.160828 456.947205,571.475281 450.912109,570.100342 
	C444.291473,568.592041 437.797638,571.117615 433.841919,576.739502 
	C430.017303,582.174988 430.059662,589.315491 433.949921,594.968201 
	C438.023071,600.886536 444.517395,602.876709 453.647644,600.408081 
M625.387756,255.481705 
	C622.127991,246.857727 615.158691,242.576538 606.852051,244.095306 
	C599.773743,245.389481 594.234070,251.905106 594.001526,259.209839 
	C593.745789,267.241913 598.605957,273.695587 606.552429,275.540039 
	C618.233459,278.251221 628.344910,267.545929 625.387756,255.481705 
z"/>
<path fill="#3F3F3F" opacity="1.000000" stroke="none" 
	d="
M1.000000,817.500000 
	C272.746948,817.000000 544.493896,817.000000 817.000000,817.000000 
	C817.000000,545.012695 817.000000,273.475006 817.000000,1.468662 
	C817.333313,1.166677 817.943848,1.315929 817.955627,1.502800 
	C818.039062,2.830880 818.000000,4.166667 818.000000,5.500000 
	C818.000000,276.333344 818.000000,547.166687 818.000000,818.000000 
	C545.666687,818.000000 273.333344,818.000000 1.000000,817.500000 
z"/>
<path fill="#FCFCFC" opacity="1.000000" stroke="none" 
	d="
M396.919678,588.642578 
	C394.256897,610.475830 369.865997,621.376831 352.174744,608.517273 
	C336.608826,597.202576 336.715576,573.812012 352.668762,562.873291 
	C360.662598,557.392212 362.892090,550.178345 361.852753,541.324036 
	C361.219696,535.931091 358.325470,531.875366 353.790955,528.768982 
	C336.134674,516.673706 336.162811,493.386749 353.760986,480.950378 
	C365.199341,472.867035 365.225067,456.025970 353.811462,447.867554 
	C336.165985,435.254517 336.097931,412.616577 353.667603,400.024445 
	C365.326691,391.668457 365.148438,375.200745 353.557098,366.550964 
	C350.289337,364.112427 347.235535,361.047974 344.962341,357.677917 
	C337.394226,346.458038 320.288055,346.036285 312.412201,357.303864 
	C307.933472,363.711334 302.326019,368.302338 294.611725,369.986603 
	C281.372803,372.877136 268.172272,366.386719 262.729187,354.399567 
	C256.998993,341.780121 260.733856,327.434875 272.307037,319.450531 
	C278.315674,315.305176 281.398834,310.088898 281.504120,302.801483 
	C281.611328,295.380585 279.168884,289.700470 272.571259,285.650391 
	C269.410095,283.709839 266.535370,280.821716 264.414368,277.752289 
	C255.990677,265.562073 239.537582,265.291412 231.012146,277.527771 
	C225.378494,285.613647 217.739883,289.929047 207.901413,290.157318 
	C194.717224,290.463165 183.028793,281.475830 180.045853,268.882874 
	C176.905716,255.626343 183.382065,242.056137 195.514526,236.470505 
	C207.800751,230.814087 222.320999,234.315063 230.143448,245.610184 
	C235.168427,252.865936 241.504974,255.802917 250.071686,255.187256 
	C256.163055,254.749527 260.665985,252.349335 263.975372,247.028168 
	C274.955078,229.373703 301.660828,229.095383 311.826477,247.216446 
	C317.113892,256.641602 337.761597,258.689026 343.993591,247.965271 
	C354.407349,230.045761 381.565918,228.563980 393.280365,248.040390 
	C399.463745,258.320770 419.748047,256.997742 425.629395,247.230576 
	C436.380646,229.375916 461.707855,228.938446 472.732666,246.538818 
	C479.601593,257.504639 500.150360,258.173401 507.119751,246.519226 
	C513.749451,235.432999 525.671387,231.756592 537.989380,234.970840 
	C549.183228,237.891739 557.366821,247.541290 558.345032,259.910614 
	C559.179626,270.464752 555.200256,279.204285 546.292969,285.179749 
	C539.710510,289.595581 536.844788,295.477081 537.120300,303.328552 
	C537.355652,310.033997 540.172119,314.971313 545.521606,318.913269 
	C548.551697,321.146118 552.034729,323.595490 553.634399,326.788666 
	C559.371277,338.240112 580.532654,339.236938 588.201416,326.751709 
	C596.329041,313.519470 614.230774,310.464294 626.838135,319.084564 
	C637.119263,326.114349 641.056763,336.204742 638.794617,348.184631 
	C636.670654,359.433044 629.444641,366.933563 618.357239,369.752289 
	C606.429138,372.784760 596.199524,369.156525 588.727356,359.322083 
	C584.835876,354.200317 580.762634,350.079865 573.975220,349.421692 
	C565.743652,348.623444 559.045105,350.739746 554.015381,357.817017 
	C541.468018,375.472626 519.032959,375.166199 506.406006,357.339081 
	C498.700531,346.460236 481.982605,346.415924 473.788025,356.973969 
	C470.777161,360.853210 467.211914,364.465942 463.339294,367.480560 
	C453.382996,375.231079 453.014954,392.789276 463.696167,399.460388 
	C481.843201,410.794312 481.765198,436.899750 464.001984,448.273346 
	C452.662140,455.534119 453.195129,473.129303 464.353882,481.026520 
	C478.392853,490.962097 481.690460,508.486481 471.997955,521.649353 
	C460.664978,537.039978 437.326263,536.785889 426.186981,521.150635 
	C416.718079,507.859863 401.605743,507.947296 391.823059,521.133728 
	C389.686371,524.013916 386.981201,526.876892 383.892731,528.573181 
	C373.079163,534.512390 372.941162,555.502686 383.751678,561.977722 
	C393.345184,567.723755 397.559662,576.938354 396.919678,588.642578 
M523.004761,308.228943 
	C524.652954,298.443268 522.903931,290.171722 513.585876,284.573425 
	C510.858643,282.934967 508.270630,280.234772 506.847229,277.403595 
	C501.429382,266.627411 480.236053,265.465881 473.193146,277.034668 
	C471.030487,280.587006 467.692383,283.863495 464.142822,286.048340 
	C453.993683,292.295410 453.533966,311.962067 464.385742,318.742432 
	C467.928101,320.955780 470.954224,324.349945 473.496796,327.743286 
	C481.658905,338.636597 498.238007,338.695831 506.387848,327.845367 
	C508.940796,324.446442 512.492188,321.816101 515.325562,318.603760 
	C518.008728,315.561676 520.349609,312.217773 523.004761,308.228943 
M421.541260,494.159210 
	C426.936096,488.811066 432.407471,483.537476 437.707733,478.097198 
	C445.427277,470.173798 443.947357,455.229340 435.133545,448.336670 
	C431.643707,445.607513 427.720306,442.740936 425.652954,439.016296 
	C419.823425,428.513641 399.559662,427.563385 392.714203,438.690155 
	C390.606720,442.115692 387.529297,445.514862 384.068420,447.432068 
	C373.010040,453.558075 372.559235,474.970825 384.332336,481.435486 
	C387.400391,483.120209 389.947296,486.156433 392.091644,489.047974 
	C399.455688,498.977966 410.235687,501.205292 421.541260,494.159210 
M427.511505,360.960876 
	C427.118042,360.424744 426.623566,359.936066 426.346039,359.345428 
	C420.344360,346.572418 398.658844,346.686096 392.085297,358.579773 
	C390.179291,362.028381 386.647522,364.970367 383.215973,367.110229 
	C373.069153,373.437653 373.298126,393.405609 383.137970,399.696289 
	C386.934723,402.123627 390.469360,405.631500 392.872986,409.436890 
	C399.121399,419.329224 418.443726,420.035095 425.233521,409.386658 
	C427.410736,405.972168 430.525208,402.924408 433.785187,400.472382 
	C445.975433,391.303467 445.967804,375.417053 433.584015,366.431152 
	C431.579651,364.976746 429.846252,363.148895 427.511505,360.960876 
M427.068420,279.402222 
	C419.239746,267.843292 403.947632,265.166901 395.132782,273.838623 
	C390.194275,278.696960 385.479523,283.798187 380.349274,288.442383 
	C373.621674,294.532654 373.192535,312.937927 383.311279,318.397003 
	C387.080597,320.430603 390.346283,324.003845 392.913452,327.547394 
	C401.002869,338.713715 417.408966,338.847443 425.528107,327.732239 
	C427.932953,324.439972 430.813904,321.030334 434.266327,319.053589 
	C445.728363,312.490631 444.956329,291.562469 434.251190,285.812866 
	C431.696014,284.440491 429.747375,281.938690 427.068420,279.402222 
M340.710815,332.386383 
	C346.127594,326.853821 351.570190,321.346252 356.954834,315.782593 
	C364.307953,308.184998 363.329376,293.857910 355.376068,287.141479 
	C351.115784,283.543762 346.824554,279.724640 343.554962,275.266418 
	C337.041168,266.384644 316.588531,266.707672 311.920074,276.956116 
	C310.314087,280.481659 306.838135,283.799866 303.386108,285.719696 
	C292.879700,291.562775 291.689728,311.728363 303.437927,318.896454 
	C306.598328,320.824707 309.348663,323.775909 311.603790,326.772003 
	C318.720734,336.227417 329.473511,338.663757 340.710815,332.386383 
z"/>
<path fill="#FAFAFA" opacity="1.000000" stroke="none" 
	d="
M213.250183,329.635193 
	C218.798340,334.765930 220.559296,340.600128 218.224716,347.492157 
	C216.085922,353.806152 211.526596,357.260895 205.023941,358.017090 
	C198.495941,358.776215 193.278336,356.296356 189.657288,350.805359 
	C185.644302,344.720093 186.535645,336.209412 191.577896,330.988831 
	C197.223312,325.143738 204.931641,324.564026 213.250183,329.635193 
z"/>
<path fill="#FAFAFA" opacity="1.000000" stroke="none" 
	d="
M453.306580,600.601746 
	C444.517395,602.876709 438.023071,600.886536 433.949921,594.968201 
	C430.059662,589.315491 430.017303,582.174988 433.841919,576.739502 
	C437.797638,571.117615 444.291473,568.592041 450.912109,570.100342 
	C456.947205,571.475281 462.143951,577.160828 462.969971,583.292419 
	C463.967285,590.695618 460.792297,596.524902 453.306580,600.601746 
z"/>
<path fill="#FAFAFA" opacity="1.000000" stroke="none" 
	d="
M625.535217,255.868774 
	C628.344910,267.545929 618.233459,278.251221 606.552429,275.540039 
	C598.605957,273.695587 593.745789,267.241913 594.001526,259.209839 
	C594.234070,251.905106 599.773743,245.389481 606.852051,244.095306 
	C615.158691,242.576538 622.127991,246.857727 625.535217,255.868774 
z"/>
<path fill="#030303" opacity="1.000000" stroke="none" 
	d="
M522.922913,308.617767 
	C520.349609,312.217773 518.008728,315.561676 515.325562,318.603760 
	C512.492188,321.816101 508.940796,324.446442 506.387848,327.845367 
	C498.238007,338.695831 481.658905,338.636597 473.496796,327.743286 
	C470.954224,324.349945 467.928101,320.955780 464.385742,318.742432 
	C453.533966,311.962067 453.993683,292.295410 464.142822,286.048340 
	C467.692383,283.863495 471.030487,280.587006 473.193146,277.034668 
	C480.236053,265.465881 501.429382,266.627411 506.847229,277.403595 
	C508.270630,280.234772 510.858643,282.934967 513.585876,284.573425 
	C522.903931,290.171722 524.652954,298.443268 522.922913,308.617767 
z"/>
<path fill="#020202" opacity="1.000000" stroke="none" 
	d="
M421.280151,494.423553 
	C410.235687,501.205292 399.455688,498.977966 392.091644,489.047974 
	C389.947296,486.156433 387.400391,483.120209 384.332336,481.435486 
	C372.559235,474.970825 373.010040,453.558075 384.068420,447.432068 
	C387.529297,445.514862 390.606720,442.115692 392.714203,438.690155 
	C399.559662,427.563385 419.823425,428.513641 425.652954,439.016296 
	C427.720306,442.740936 431.643707,445.607513 435.133545,448.336670 
	C443.947357,455.229340 445.427277,470.173798 437.707733,478.097198 
	C432.407471,483.537476 426.936096,488.811066 421.280151,494.423553 
z"/>
<path fill="#020202" opacity="1.000000" stroke="none" 
	d="
M427.749573,361.227295 
	C429.846252,363.148895 431.579651,364.976746 433.584015,366.431152 
	C445.967804,375.417053 445.975433,391.303467 433.785187,400.472382 
	C430.525208,402.924408 427.410736,405.972168 425.233521,409.386658 
	C418.443726,420.035095 399.121399,419.329224 392.872986,409.436890 
	C390.469360,405.631500 386.934723,402.123627 383.137970,399.696289 
	C373.298126,393.405609 373.069153,373.437653 383.215973,367.110229 
	C386.647522,364.970367 390.179291,362.028381 392.085297,358.579773 
	C398.658844,346.686096 420.344360,346.572418 426.346039,359.345428 
	C426.623566,359.936066 427.118042,360.424744 427.749573,361.227295 
z"/>
<path fill="#030303" opacity="1.000000" stroke="none" 
	d="
M427.294067,279.679291 
	C429.747375,281.938690 431.696014,284.440491 434.251190,285.812866 
	C444.956329,291.562469 445.728363,312.490631 434.266327,319.053589 
	C430.813904,321.030334 427.932953,324.439972 425.528107,327.732239 
	C417.408966,338.847443 401.002869,338.713715 392.913452,327.547394 
	C390.346283,324.003845 387.080597,320.430603 383.311279,318.397003 
	C373.192535,312.937927 373.621674,294.532654 380.349274,288.442383 
	C385.479523,283.798187 390.194275,278.696960 395.132782,273.838623 
	C403.947632,265.166901 419.239746,267.843292 427.294067,279.679291 
z"/>
<path fill="#030303" opacity="1.000000" stroke="none" 
	d="
M340.414185,332.613007 
	C329.473511,338.663757 318.720734,336.227417 311.603790,326.772003 
	C309.348663,323.775909 306.598328,320.824707 303.437927,318.896454 
	C291.689728,311.728363 292.879700,291.562775 303.386108,285.719696 
	C306.838135,283.799866 310.314087,280.481659 311.920074,276.956116 
	C316.588531,266.707672 337.041168,266.384644 343.554962,275.266418 
	C346.824554,279.724640 351.115784,283.543762 355.376068,287.141479 
	C363.329376,293.857910 364.307953,308.184998 356.954834,315.782593 
	C351.570190,321.346252 346.127594,326.853821 340.414185,332.613007 
z"/>
</svg>