<svg version="1.1" id="Layer_1" xmlns="http://www.w3.org/2000/svg" xmlns:xlink="http://www.w3.org/1999/xlink" x="0px" y="0px"
	 width="100%" viewBox="0 0 3200 2400" enable-background="new 0 0 3200 2400" xml:space="preserve">
<path fill="#07031C" opacity="1.000000" stroke="none" 
	d="
M2958.000000,2402.000000 
	C1972.000122,2402.000000 987.000366,2402.000000 2.000396,2402.000000 
	C2.000264,1602.000366 2.000264,802.000610 2.000132,2.000719 
	C1068.666138,2.000479 2135.332275,2.000479 3201.999023,2.000239 
	C3201.999268,801.999329 3201.999268,1601.998657 3201.999512,2401.999023 
	C3121.000000,2402.000000 3040.000000,2402.000000 2958.000000,2402.000000 
M827.124756,1089.785645 
	C827.628479,1089.393677 827.777283,1088.895508 828.437256,1087.117310 
	C837.747314,1068.098511 847.057434,1049.079590 857.182922,1029.558838 
	C856.873108,1028.644531 856.563232,1027.730103 854.392700,1026.379272 
	C828.183167,1026.348267 801.973511,1026.256104 775.764160,1026.309570 
	C760.514038,1026.340698 745.264404,1026.605225 728.181763,1026.355225 
	C712.294922,1026.320801 696.407776,1026.208740 680.521301,1026.271362 
	C659.679993,1026.353394 638.839172,1026.573364 616.162598,1026.338379 
	C572.693115,1026.338379 529.223572,1026.338379 483.778473,1026.338379 
	C495.136932,1049.073975 505.737671,1070.292969 516.351624,1091.538330 
	C547.594543,1091.538330 577.845520,1091.563110 608.096252,1091.507935 
	C612.062500,1091.500732 616.027954,1091.083130 621.822449,1091.312012 
	C655.937805,1091.381348 690.053223,1091.462402 724.168579,1091.489990 
	C726.128906,1091.491577 728.089600,1091.057495 731.861755,1091.292725 
	C761.387085,1091.208374 790.912415,1091.124023 821.554138,1091.514771 
	C822.997314,1091.098022 824.440552,1090.681274 826.241638,1090.301270 
	C826.241638,1090.301270 826.311646,1089.948364 827.124756,1089.785645 
M1580.000000,1185.995117 
	C1580.000000,1185.995117 1579.714966,1185.773560 1578.649048,1186.210693 
	C1577.796265,1187.457886 1576.943604,1188.704956 1574.984863,1190.419312 
	C1573.969482,1191.630127 1572.954102,1192.841064 1570.946411,1194.249878 
	C1570.588867,1194.794556 1570.231323,1195.339233 1568.905884,1196.078857 
	C1568.228516,1196.351807 1567.838989,1196.849854 1566.503296,1197.842041 
	C1564.850830,1199.099365 1563.198486,1200.356689 1561.702759,1201.660889 
	C1561.702759,1201.660889 1561.711426,1201.497437 1560.312012,1201.722900 
	C1557.811768,1203.005859 1555.311646,1204.288818 1552.213257,1205.416260 
	C1552.213257,1205.416260 1551.871460,1205.931030 1550.927002,1205.828857 
	C1550.927002,1205.828857 1550.121460,1206.332397 1548.617676,1206.262329 
	C1547.738770,1206.698853 1546.859863,1207.135498 1544.335571,1207.484253 
	C1527.439819,1207.747437 1510.542358,1207.934814 1493.650146,1208.343140 
	C1490.582153,1208.417114 1487.536255,1209.394775 1483.865356,1211.745850 
	C1483.963013,1231.877686 1484.060547,1252.009521 1484.009521,1273.301758 
	C1484.534058,1273.836182 1485.058594,1274.370605 1486.134766,1276.069702 
	C1518.556641,1308.627930 1551.050415,1341.115356 1583.311401,1373.832397 
	C1587.449951,1378.029419 1591.715454,1379.442383 1597.414795,1379.384155 
	C1621.385620,1379.139282 1645.360474,1379.270264 1669.333740,1379.263916 
	C1672.186157,1379.263062 1675.038574,1379.263794 1677.890869,1379.263794 
	C1678.128906,1378.606689 1678.366821,1377.949463 1678.604858,1377.292358 
	C1642.703613,1341.190918 1606.802368,1305.089600 1569.950439,1268.032227 
	C1576.624146,1265.281738 1581.825317,1263.414551 1586.789551,1261.049683 
	C1637.989624,1236.658325 1666.070923,1177.682495 1652.822754,1122.545898 
	C1639.251709,1066.066528 1591.875122,1027.985962 1533.758789,1027.251709 
	C1506.460327,1026.906738 1479.153687,1027.159912 1451.851074,1027.238647 
	C1445.219971,1027.257812 1438.589966,1027.658447 1430.139648,1027.416504 
	C1411.311646,1027.629150 1392.483643,1027.841797 1373.586304,1027.708130 
	C1373.586304,1027.708130 1373.446655,1028.020264 1373.446655,1028.020264 
	C1373.446655,1028.020264 1373.921143,1027.915894 1372.093262,1028.813599 
	C1371.902222,1031.455566 1371.544556,1034.097412 1371.543945,1036.739380 
	C1371.520752,1147.158325 1371.525757,1257.577271 1371.554688,1367.996216 
	C1371.555542,1370.918579 1371.860962,1373.840820 1372.046997,1377.167358 
	C1375.102295,1377.167358 1377.647217,1377.167358 1382.003906,1377.543823 
	C1398.166138,1377.578613 1414.328491,1377.644165 1430.490723,1377.614990 
	C1432.892090,1377.610596 1436.241943,1378.498779 1436.042236,1372.669434 
	C1435.907471,1371.757812 1435.772705,1370.846191 1436.009644,1368.669800 
	C1435.886108,1367.808716 1435.762695,1366.947632 1436.060059,1364.242676 
	C1436.082642,1280.785278 1436.108765,1197.327881 1436.107544,1113.870483 
	C1436.107544,1111.891357 1435.802002,1109.912354 1436.018921,1106.218750 
	C1435.911011,1102.128052 1435.802979,1098.037476 1436.249268,1093.257690 
	C1436.249268,1093.257690 1436.583130,1092.438721 1436.458740,1092.516846 
	C1436.458740,1092.516846 1436.321777,1092.593872 1437.230469,1092.234253 
	C1437.230469,1092.234253 1438.020508,1091.658936 1439.868164,1091.980957 
	C1471.197632,1092.020752 1502.530396,1091.794312 1533.855591,1092.177490 
	C1563.497314,1092.540039 1587.037476,1114.457153 1590.561035,1143.816895 
	C1592.269287,1158.051636 1588.229614,1170.765991 1580.578491,1183.610840 
	C1580.289307,1184.333984 1580.000122,1185.057129 1580.000000,1185.995117 
M2467.884033,1360.029175 
	C2468.542725,1360.160278 2469.201172,1360.291504 2470.720459,1361.487305 
	C2491.457520,1371.104858 2513.328125,1376.343628 2536.088867,1377.227417 
	C2555.048340,1377.963379 2573.866699,1376.421997 2593.460938,1369.897949 
	C2647.967529,1352.590698 2686.235840,1317.425415 2706.884033,1264.215576 
	C2713.201172,1247.936035 2715.849854,1230.221924 2720.011719,1213.123901 
	C2721.151611,1208.440674 2721.686035,1203.609985 2722.538330,1198.610840 
	C2666.093750,1198.610840 2610.657227,1198.610840 2554.782715,1198.610840 
	C2554.782715,1220.088379 2554.782715,1240.927612 2554.782715,1263.065918 
	C2581.161133,1263.065918 2607.205078,1263.065918 2635.292725,1263.065918 
	C2631.608887,1267.958862 2629.438965,1271.185303 2626.927734,1274.119507 
	C2612.205811,1291.321655 2593.467529,1302.246582 2570.471436,1309.069946 
	C2538.410156,1316.369995 2508.596191,1311.230591 2481.138184,1292.965820 
	C2480.335938,1292.432251 2479.330811,1292.203979 2477.768311,1290.642090 
	C2475.719482,1288.953491 2473.633057,1287.307983 2471.626953,1285.569824 
	C2425.823242,1245.884155 2420.022217,1177.421875 2458.774414,1130.790039 
	C2464.451904,1123.958252 2471.412598,1118.192871 2478.808350,1111.792114 
	C2479.232666,1111.279907 2479.656738,1110.767822 2481.348877,1110.002319 
	C2483.027588,1108.710327 2484.706299,1107.418335 2487.492188,1106.040405 
	C2488.328369,1105.361572 2489.164551,1104.682739 2491.313477,1103.867676 
	C2491.973877,1103.319580 2492.634033,1102.771484 2494.687256,1102.146484 
	C2515.069580,1092.471924 2536.422119,1088.502808 2558.810303,1092.055420 
	C2567.304932,1093.403198 2575.615967,1095.908569 2585.063965,1098.775024 
	C2605.475098,1107.429443 2622.066162,1120.904541 2635.298096,1139.633789 
	C2653.337891,1127.408081 2670.881836,1115.518311 2688.689453,1103.449829 
	C2680.600830,1090.773193 2671.325684,1080.361450 2660.833008,1071.064331 
	C2637.474609,1050.367676 2610.929688,1035.862305 2578.533936,1029.555542 
	C2572.982178,1028.624023 2567.462891,1027.322266 2561.872559,1026.827026 
	C2540.967041,1024.975464 2520.202637,1025.341431 2498.416016,1031.875977 
	C2492.306152,1034.012695 2486.196045,1036.149414 2478.921387,1038.215942 
	C2477.954102,1038.821655 2476.986816,1039.427368 2474.541504,1040.088257 
	C2372.975342,1085.259399 2336.879395,1207.399170 2398.086670,1299.477295 
	C2412.056396,1320.492676 2429.389404,1338.292480 2452.284180,1351.552368 
	C2453.520264,1352.163330 2454.756104,1352.774292 2457.023682,1354.353760 
	C2460.373291,1356.024780 2463.723145,1357.695923 2467.121582,1359.296143 
	C2467.121582,1359.296143 2467.112061,1359.355103 2467.884033,1360.029175 
M2195.618408,1254.717407 
	C2174.790283,1226.714355 2153.997559,1198.685059 2133.122559,1170.717041 
	C2118.070801,1150.551270 2102.910645,1130.466309 2087.796631,1110.347046 
	C2079.199951,1098.903198 2070.599121,1087.462769 2061.650146,1074.698853 
	C2051.327393,1060.799927 2040.848877,1047.012451 2030.781372,1032.931274 
	C2027.926147,1028.937622 2024.840820,1027.360352 2020.023315,1027.528931 
	C2011.041260,1027.843262 2002.040527,1027.620239 1993.047485,1027.620483 
	C1982.820801,1027.620850 1972.594116,1027.620605 1962.218506,1027.620605 
	C1962.218506,1144.970703 1962.218506,1261.301025 1962.218506,1377.726562 
	C1983.744263,1377.726562 2004.577759,1377.726562 2026.500000,1377.726562 
	C2026.500000,1300.609863 2026.500000,1223.969116 2026.500000,1147.328247 
	C2027.087158,1147.160156 2027.674194,1146.992065 2028.261353,1146.823975 
	C2039.175415,1161.327881 2050.089600,1175.831909 2061.549805,1191.647827 
	C2105.484131,1251.626953 2149.500732,1311.546509 2193.229980,1371.674805 
	C2197.753418,1377.894775 2202.494873,1380.662720 2211.430176,1378.895386 
	C2228.654541,1378.895386 2245.878906,1378.895386 2262.949707,1378.895386 
	C2262.949707,1261.318115 2262.949707,1144.956055 2262.949707,1028.765381 
	C2241.065186,1028.765381 2219.940430,1028.765381 2198.203857,1028.765381 
	C2198.203857,1032.782959 2198.203613,1036.069092 2198.203613,1039.355225 
	C2198.204590,1068.659424 2198.205566,1097.963501 2198.206055,1127.267700 
	C2198.207031,1166.894897 2198.260742,1206.522461 2198.112305,1246.149048 
	C2198.099854,1249.448853 2196.726807,1252.743652 2195.618408,1254.717407 
M1037.249268,1364.692871 
	C1081.427002,1382.014526 1125.554321,1381.349365 1167.933350,1360.412842 
	C1227.861206,1330.806885 1259.476074,1281.163452 1261.246460,1214.532593 
	C1262.838257,1154.616089 1261.599854,1094.624023 1261.559692,1034.665283 
	C1261.557983,1032.138550 1261.046509,1029.612183 1260.767578,1027.040527 
	C1239.188599,1027.040527 1218.353516,1027.040527 1196.410156,1027.040527 
	C1196.410156,1031.187988 1196.410156,1034.756470 1196.410156,1038.324951 
	C1196.409546,1063.640869 1196.426758,1088.956787 1196.403931,1114.272705 
	C1196.372314,1149.248047 1196.943115,1184.238525 1196.115845,1219.195435 
	C1194.807983,1274.465576 1144.432739,1318.108521 1089.475098,1312.909058 
	C1067.788940,1310.857300 1049.169434,1302.249146 1031.791870,1287.807495 
	C1009.169128,1266.440796 998.994568,1240.230591 999.270203,1209.105225 
	C999.774841,1152.137695 999.413696,1095.162598 999.413574,1038.190674 
	C999.413574,1034.639160 999.413574,1031.087646 999.413574,1027.778442 
	C986.831665,1025.608032 941.866943,1026.086182 934.772461,1028.270020 
	C934.642212,1029.524902 934.386414,1030.841187 934.386108,1032.157471 
	C934.371460,1093.793457 933.535522,1155.444946 934.656189,1217.060547 
	C935.523010,1264.723022 955.131226,1304.644043 990.843628,1336.438354 
	C1004.235962,1348.361328 1019.303528,1357.543213 1037.249268,1364.692871 
M1776.815186,1370.238403 
	C1777.076294,1372.487671 1777.337402,1374.736816 1777.584473,1376.864990 
	C1791.620850,1378.642822 1834.569946,1378.071045 1841.313843,1376.087036 
	C1843.462036,1349.165039 1842.395508,1034.375732 1840.175781,1027.165527 
	C1819.318970,1027.165527 1798.513550,1027.165527 1777.973877,1027.165527 
	C1777.471924,1028.455566 1777.029785,1029.061768 1777.029297,1029.668091 
	C1776.934814,1142.572632 1776.871704,1255.477051 1776.815186,1370.238403 
M703.771851,1151.345459 
	C703.771851,1147.489258 703.771851,1143.633057 703.771851,1139.562256 
	C681.537720,1139.562256 660.737427,1139.562256 640.011353,1139.562256 
	C639.484192,1141.126953 638.906921,1142.042114 638.905762,1142.957886 
	C638.808228,1218.551514 638.750244,1294.145264 638.728088,1369.738892 
	C638.727478,1371.709717 639.133301,1373.683350 639.402893,1375.648315 
	C639.442444,1375.936890 639.762207,1376.200439 639.984680,1376.446411 
	C640.197571,1376.681763 640.452576,1376.879150 640.689026,1377.093140 
	C659.487915,1378.696411 696.115540,1378.020630 703.777832,1375.727051 
	C703.777832,1301.719238 703.777832,1227.493896 703.771851,1151.345459 
z"/>
<path fill="#94DFF8" opacity="1.000000" stroke="none" 
	d="
M1484.158203,1272.141357 
	C1484.060547,1252.009521 1483.963013,1231.877686 1485.078125,1210.867554 
	C1502.814697,1209.989258 1519.340576,1210.121948 1535.860840,1209.879761 
	C1539.244751,1209.830078 1542.608032,1208.377808 1545.980957,1207.572021 
	C1546.859863,1207.135498 1547.738770,1206.698853 1549.592285,1206.481689 
	C1551.206909,1206.838135 1551.641724,1206.581421 1551.871460,1205.931030 
	C1551.871460,1205.931030 1552.213257,1205.416260 1553.298218,1205.573486 
	C1557.771606,1205.956665 1560.486816,1205.017334 1561.711426,1201.497437 
	C1561.711426,1201.497437 1561.702759,1201.660889 1562.303711,1201.639893 
	C1564.515625,1200.270142 1566.126465,1198.921509 1567.737305,1197.572876 
	C1567.838989,1196.849854 1568.228516,1196.351807 1569.810791,1195.772095 
	C1571.244995,1195.099365 1571.652710,1194.628296 1571.938721,1194.051880 
	C1572.954102,1192.841064 1573.969482,1191.630127 1576.138672,1190.041138 
	C1578.099854,1188.366577 1578.907471,1187.070068 1579.715088,1185.773560 
	C1579.714966,1185.773560 1580.000000,1185.995117 1580.312988,1185.531250 
	C1580.946899,1184.373047 1581.267944,1183.678589 1581.588989,1182.984253 
	C1588.229614,1170.765991 1592.269287,1158.051636 1590.561035,1143.816895 
	C1587.037476,1114.457153 1563.497314,1092.540039 1533.855591,1092.177490 
	C1502.530396,1091.794312 1471.197632,1092.020752 1439.543701,1091.432617 
	C1442.838135,1089.855957 1445.272339,1088.523804 1446.395630,1083.961670 
	C1447.949341,1077.651123 1443.948853,1071.469360 1445.412720,1066.601562 
	C1448.011963,1057.958252 1444.479126,1049.574097 1446.979004,1041.104370 
	C1448.987427,1034.299683 1445.601440,1031.047363 1438.423218,1029.929565 
	C1436.215942,1029.585693 1434.111206,1028.583984 1431.959473,1027.883667 
	C1438.589966,1027.658447 1445.219971,1027.257812 1451.851074,1027.238647 
	C1479.153687,1027.159912 1506.460327,1026.906738 1533.758789,1027.251709 
	C1591.875122,1027.985962 1639.251709,1066.066528 1652.822754,1122.545898 
	C1666.070923,1177.682495 1637.989624,1236.658325 1586.789551,1261.049683 
	C1581.825317,1263.414551 1576.624146,1265.281738 1569.950439,1268.032227 
	C1606.802368,1305.089600 1642.703613,1341.190918 1678.604858,1377.292358 
	C1678.366821,1377.949463 1678.128906,1378.606689 1677.890869,1379.263794 
	C1675.038574,1379.263794 1672.186157,1379.263062 1669.333740,1379.263916 
	C1645.360474,1379.270264 1621.385620,1379.139282 1597.414795,1379.384155 
	C1591.715454,1379.442383 1587.449951,1378.029419 1583.311401,1373.832397 
	C1551.050415,1341.115356 1518.556641,1308.627930 1485.752930,1274.968750 
	C1484.966919,1273.292358 1484.562500,1272.716919 1484.158203,1272.141357 
z"/>
<path fill="#74B2F8" opacity="1.000000" stroke="none" 
	d="
M1032.373413,1288.929199 
	C1049.169434,1302.249146 1067.788940,1310.857300 1089.475098,1312.909058 
	C1144.432739,1318.108521 1194.807983,1274.465576 1196.115845,1219.195435 
	C1196.943115,1184.238525 1196.372314,1149.248047 1196.403931,1114.272705 
	C1196.426758,1088.956787 1196.409546,1063.640869 1196.410156,1038.324951 
	C1196.410156,1034.756470 1196.410156,1031.187988 1196.410156,1027.040527 
	C1218.353516,1027.040527 1239.188599,1027.040527 1260.767578,1027.040527 
	C1261.046509,1029.612183 1261.557983,1032.138550 1261.559692,1034.665283 
	C1261.599854,1094.624023 1262.838257,1154.616089 1261.246460,1214.532593 
	C1259.476074,1281.163452 1227.861206,1330.806885 1167.933350,1360.412842 
	C1125.554321,1381.349365 1081.427002,1382.014526 1037.129883,1363.767334 
	C1041.628662,1358.643188 1043.192017,1354.229004 1042.885010,1347.295532 
	C1042.506104,1338.739624 1041.258057,1331.348511 1036.783569,1324.077881 
	C1034.991699,1321.166504 1034.403320,1317.019043 1034.598877,1313.508301 
	C1034.830566,1309.347046 1037.112793,1305.305298 1037.380005,1301.139282 
	C1037.673584,1296.564697 1030.577148,1294.492432 1032.373413,1288.929199 
z"/>
<path fill="#BFD2E3" opacity="1.000000" stroke="none" 
	d="
M2061.003662,1190.335815 
	C2050.089600,1175.831909 2039.175415,1161.327881 2028.261353,1146.823975 
	C2027.674194,1146.992065 2027.087158,1147.160156 2026.500000,1147.328247 
	C2026.500000,1223.969116 2026.500000,1300.609863 2026.500000,1377.726562 
	C2004.577759,1377.726562 1983.744263,1377.726562 1962.218506,1377.726562 
	C1962.218506,1261.301025 1962.218506,1144.970703 1962.218506,1027.620605 
	C1972.594116,1027.620605 1982.820801,1027.620850 1993.047485,1027.620483 
	C2002.040527,1027.620239 2011.041260,1027.843262 2020.023315,1027.528931 
	C2024.840820,1027.360352 2027.926147,1028.937622 2030.781372,1032.931274 
	C2040.848877,1047.012451 2051.327393,1060.799927 2061.815430,1076.143066 
	C2060.708740,1084.147095 2059.961182,1089.990479 2065.895752,1095.661255 
	C2070.142578,1099.719360 2071.291504,1106.185547 2067.906250,1112.313843 
	C2065.489258,1116.689697 2066.157227,1120.855225 2068.024902,1125.605225 
	C2069.610596,1129.638306 2069.198975,1134.560547 2069.183350,1139.087769 
	C2069.169678,1143.032227 2067.730469,1147.071045 2068.229004,1150.897827 
	C2069.422119,1160.057373 2071.168701,1169.162720 2073.101562,1178.202393 
	C2074.911621,1186.666260 2073.491455,1189.053711 2064.981445,1190.046509 
	C2063.662354,1190.200439 2062.329834,1190.242310 2061.003662,1190.335815 
z"/>
<path fill="#D2C8D4" opacity="1.000000" stroke="none" 
	d="
M2195.985840,1256.040894 
	C2196.726807,1252.743652 2198.099854,1249.448853 2198.112305,1246.149048 
	C2198.260742,1206.522461 2198.207031,1166.894897 2198.206055,1127.267700 
	C2198.205566,1097.963501 2198.204590,1068.659424 2198.203613,1039.355225 
	C2198.203613,1036.069092 2198.203857,1032.782959 2198.203857,1028.765381 
	C2219.940430,1028.765381 2241.065186,1028.765381 2262.949707,1028.765381 
	C2262.949707,1144.956055 2262.949707,1261.318115 2262.949707,1378.895386 
	C2245.878906,1378.895386 2228.654541,1378.895386 2210.532715,1377.952271 
	C2205.976074,1372.807617 2202.871826,1367.878906 2198.532959,1364.567871 
	C2191.261475,1359.018555 2187.986084,1352.107422 2187.996582,1343.241333 
	C2188.017578,1325.974854 2188.163574,1308.706299 2187.928711,1291.442993 
	C2187.818359,1283.353638 2188.450439,1275.716309 2192.535645,1268.385742 
	C2194.558105,1264.756958 2194.889648,1260.185791 2195.985840,1256.040894 
z"/>
<path fill="#AAD5E9" opacity="1.000000" stroke="none" 
	d="
M1776.811279,1369.310059 
	C1776.871704,1255.477051 1776.934814,1142.572632 1777.029297,1029.668091 
	C1777.029785,1029.061768 1777.471924,1028.455566 1777.973877,1027.165527 
	C1798.513550,1027.165527 1819.318970,1027.165527 1840.175781,1027.165527 
	C1842.395508,1034.375732 1843.462036,1349.165039 1841.313843,1376.087036 
	C1834.569946,1378.071045 1791.620850,1378.642822 1777.584473,1376.864990 
	C1777.337402,1374.736816 1777.076294,1372.487671 1776.811279,1369.310059 
z"/>
<path fill="#88D1FC" opacity="1.000000" stroke="none" 
	d="
M1431.049561,1027.650146 
	C1434.111206,1028.583984 1436.215942,1029.585693 1438.423218,1029.929565 
	C1445.601440,1031.047363 1448.987427,1034.299683 1446.979004,1041.104370 
	C1444.479126,1049.574097 1448.011963,1057.958252 1445.412720,1066.601562 
	C1443.948853,1071.469360 1447.949341,1077.651123 1446.395630,1083.961670 
	C1445.272339,1088.523804 1442.838135,1089.855957 1438.619873,1091.271606 
	C1438.020508,1091.658936 1437.230469,1092.234253 1436.848877,1092.405762 
	C1436.467407,1092.577271 1436.583130,1092.438721 1436.583130,1092.438721 
	C1436.583130,1092.438721 1436.249268,1093.257690 1435.584961,1094.224976 
	C1435.160034,1099.439209 1435.399536,1103.686279 1435.639038,1107.933228 
	C1435.802002,1109.912354 1436.107544,1111.891357 1436.107544,1113.870483 
	C1436.108765,1197.327881 1436.082642,1280.785278 1435.556152,1365.503418 
	C1435.247559,1367.820923 1435.442749,1368.877686 1435.637939,1369.934570 
	C1435.772705,1370.846191 1435.907471,1371.757812 1435.018799,1373.398071 
	C1428.161011,1374.779541 1422.341553,1375.742065 1416.489502,1376.020630 
	C1404.399536,1376.596069 1392.292358,1376.806641 1380.192261,1377.167358 
	C1377.647217,1377.167358 1375.102295,1377.167358 1372.046997,1377.167358 
	C1371.860962,1373.840820 1371.555542,1370.918579 1371.554688,1367.996216 
	C1371.525757,1257.577271 1371.520752,1147.158325 1371.543945,1036.739380 
	C1371.544556,1034.097412 1371.902222,1031.455566 1372.942871,1028.406982 
	C1373.792480,1028.000366 1373.655640,1028.054321 1373.655640,1028.054321 
	C1392.483643,1027.841797 1411.311646,1027.629150 1431.049561,1027.650146 
z"/>
<path fill="#6296F9" opacity="1.000000" stroke="none" 
	d="
M1032.082642,1288.368408 
	C1030.577148,1294.492432 1037.673584,1296.564697 1037.380005,1301.139282 
	C1037.112793,1305.305298 1034.830566,1309.347046 1034.598877,1313.508301 
	C1034.403320,1317.019043 1034.991699,1321.166504 1036.783569,1324.077881 
	C1041.258057,1331.348511 1042.506104,1338.739624 1042.885010,1347.295532 
	C1043.192017,1354.229004 1041.628662,1358.643188 1036.563232,1363.334473 
	C1019.303528,1357.543213 1004.235962,1348.361328 990.843628,1336.438354 
	C955.131226,1304.644043 935.523010,1264.723022 934.656189,1217.060547 
	C933.535522,1155.444946 934.371460,1093.793457 934.386108,1032.157471 
	C934.386414,1030.841187 934.642212,1029.524902 934.772461,1028.270020 
	C941.866943,1026.086182 986.831665,1025.608032 999.413574,1027.778442 
	C999.413574,1031.087646 999.413574,1034.639160 999.413574,1038.190674 
	C999.413696,1095.162598 999.774841,1152.137695 999.270203,1209.105225 
	C998.994568,1240.230591 1009.169128,1266.440796 1032.082642,1288.368408 
z"/>
<path fill="#F8BAC0" opacity="1.000000" stroke="none" 
	d="
M2572.061279,1308.943970 
	C2593.467529,1302.246582 2612.205811,1291.321655 2626.927734,1274.119507 
	C2629.438965,1271.185303 2631.608887,1267.958862 2635.292725,1263.065918 
	C2607.205078,1263.065918 2581.161133,1263.065918 2554.782715,1263.065918 
	C2554.782715,1240.927612 2554.782715,1220.088379 2554.782715,1198.610840 
	C2610.657227,1198.610840 2666.093750,1198.610840 2722.538330,1198.610840 
	C2721.686035,1203.609985 2721.151611,1208.440674 2720.011719,1213.123901 
	C2715.849854,1230.221924 2713.201172,1247.936035 2706.884033,1264.215576 
	C2686.235840,1317.425415 2647.967529,1352.590698 2592.184570,1369.500732 
	C2588.656982,1369.389038 2586.397705,1369.624634 2584.155762,1369.969849 
	C2577.474121,1370.999268 2574.790527,1369.797974 2573.062500,1363.490845 
	C2571.682861,1358.454590 2569.853027,1352.777710 2570.934082,1347.998291 
	C2572.872559,1339.429199 2571.235352,1331.459106 2569.227051,1323.575928 
	C2567.763672,1317.830933 2568.214111,1313.268311 2572.061279,1308.943970 
z"/>
<path fill="#E4C2CB" opacity="1.000000" stroke="none" 
	d="
M2451.774170,1350.631104 
	C2429.389404,1338.292480 2412.056396,1320.492676 2398.086670,1299.477295 
	C2336.879395,1207.399170 2372.975342,1085.259399 2475.269531,1040.843750 
	C2476.561523,1050.817017 2469.278809,1051.701050 2462.420654,1053.420898 
	C2464.026611,1060.641113 2461.384521,1066.258911 2457.695557,1071.961304 
	C2454.735840,1076.536499 2455.108643,1081.993164 2457.837891,1087.378662 
	C2461.514893,1087.378662 2465.046143,1087.378662 2468.358154,1087.378662 
	C2473.573242,1095.581787 2466.047119,1102.698608 2466.739502,1111.327271 
	C2470.724365,1111.546265 2474.251953,1111.739990 2477.779297,1111.933838 
	C2471.412598,1118.192871 2464.451904,1123.958252 2458.774414,1130.790039 
	C2420.022217,1177.421875 2425.823242,1245.884155 2471.626953,1285.569824 
	C2473.633057,1287.307983 2475.719482,1288.953491 2477.367676,1291.391113 
	C2470.363037,1295.561401 2467.876953,1301.211914 2467.985107,1308.388306 
	C2468.129395,1317.976318 2468.241455,1327.484619 2463.421875,1336.408081 
	C2462.309082,1338.468994 2462.685059,1342.704956 2464.143799,1344.516602 
	C2467.903809,1349.186646 2468.524170,1353.939209 2467.072754,1359.366943 
	C2463.723145,1357.695923 2460.373291,1356.024780 2456.645508,1353.231934 
	C2456.610107,1349.877808 2456.952637,1347.645508 2457.294922,1345.413086 
	C2456.493652,1345.147217 2455.692383,1344.881348 2454.891357,1344.615479 
	C2453.852295,1346.620728 2452.813232,1348.625854 2451.774170,1350.631104 
z"/>
<path fill="#486CF7" opacity="1.000000" stroke="none" 
	d="
M703.774841,1152.307007 
	C703.777832,1227.493896 703.777832,1301.719238 703.777832,1375.727051 
	C696.115540,1378.020630 659.487915,1378.696411 640.689026,1377.093140 
	C640.452576,1376.879150 640.197571,1376.681763 639.984680,1376.446411 
	C639.762207,1376.200439 639.442444,1375.936890 639.402893,1375.648315 
	C639.133301,1373.683350 638.727478,1371.709717 638.728088,1369.738892 
	C638.750244,1294.145264 638.808228,1218.551514 638.905762,1142.957886 
	C638.906921,1142.042114 639.484192,1141.126953 640.011353,1139.562256 
	C660.737427,1139.562256 681.537720,1139.562256 703.771851,1139.562256 
	C703.771851,1143.633057 703.771851,1147.489258 703.774841,1152.307007 
z"/>
<path fill="#CACCDC" opacity="1.000000" stroke="none" 
	d="
M2195.802246,1255.379150 
	C2194.889648,1260.185791 2194.558105,1264.756958 2192.535645,1268.385742 
	C2188.450439,1275.716309 2187.818359,1283.353638 2187.928711,1291.442993 
	C2188.163574,1308.706299 2188.017578,1325.974854 2187.996582,1343.241333 
	C2187.986084,1352.107422 2191.261475,1359.018555 2198.532959,1364.567871 
	C2202.871826,1367.878906 2205.976074,1372.807617 2209.753418,1377.687500 
	C2202.494873,1380.662720 2197.753418,1377.894775 2193.229980,1371.674805 
	C2149.500732,1311.546509 2105.484131,1251.626953 2061.276855,1190.991821 
	C2062.329834,1190.242310 2063.662354,1190.200439 2064.981445,1190.046509 
	C2073.491455,1189.053711 2074.911621,1186.666260 2073.101562,1178.202393 
	C2071.168701,1169.162720 2069.422119,1160.057373 2068.229004,1150.897827 
	C2067.730469,1147.071045 2069.169678,1143.032227 2069.183350,1139.087769 
	C2069.198975,1134.560547 2069.610596,1129.638306 2068.024902,1125.605225 
	C2066.157227,1120.855225 2065.489258,1116.689697 2067.906250,1112.313843 
	C2071.291504,1106.185547 2070.142578,1099.719360 2065.895752,1095.661255 
	C2059.961182,1089.990479 2060.708740,1084.147095 2061.990479,1076.803955 
	C2070.599121,1087.462769 2079.199951,1098.903198 2087.796631,1110.347046 
	C2102.910645,1130.466309 2118.070801,1150.551270 2133.122559,1170.717041 
	C2153.997559,1198.685059 2174.790283,1226.714355 2195.802246,1255.379150 
z"/>
<path fill="#3E5DF2" opacity="1.000000" stroke="none" 
	d="
M619.993774,1090.855591 
	C616.027954,1091.083130 612.062500,1091.500732 608.096252,1091.507935 
	C577.845520,1091.563110 547.594543,1091.538330 516.351624,1091.538330 
	C505.737671,1070.292969 495.136932,1049.073975 483.778473,1026.338379 
	C529.223572,1026.338379 572.693115,1026.338379 617.089844,1027.353271 
	C619.266357,1040.723511 620.616333,1053.069946 621.701660,1065.439697 
	C622.014465,1069.004272 621.697632,1072.645386 621.432617,1076.234009 
	C621.072021,1081.116699 620.484131,1085.982544 619.993774,1090.855591 
z"/>
<path fill="#F8BAC0" opacity="1.000000" stroke="none" 
	d="
M2579.948975,1030.194824 
	C2610.929688,1035.862305 2637.474609,1050.367676 2660.833008,1071.064331 
	C2671.325684,1080.361450 2680.600830,1090.773193 2688.689453,1103.449829 
	C2670.881836,1115.518311 2653.337891,1127.408081 2635.298096,1139.633789 
	C2622.066162,1120.904541 2605.475098,1107.429443 2584.318359,1097.672852 
	C2580.505371,1094.326660 2575.868896,1092.692261 2574.709229,1089.707275 
	C2572.539551,1084.122437 2566.422363,1079.627686 2568.996826,1072.330444 
	C2569.370850,1071.270386 2567.826172,1069.420654 2566.968506,1068.063110 
	C2565.354736,1065.508667 2560.769775,1063.723267 2564.015869,1059.867554 
	C2567.009277,1056.312134 2570.023438,1059.996704 2573.017334,1060.748413 
	C2573.537109,1060.878784 2574.208008,1060.407715 2576.224365,1059.759521 
	C2574.955078,1056.892090 2573.986572,1054.012939 2572.485840,1051.444580 
	C2568.135010,1043.997559 2569.187256,1040.311646 2576.648926,1035.608643 
	C2578.250244,1034.599365 2578.874756,1032.040161 2579.948975,1030.194824 
z"/>
<path fill="#537EFD" opacity="1.000000" stroke="none" 
	d="
M856.367554,1030.060791 
	C847.057434,1049.079590 837.747314,1068.098511 827.693665,1087.891846 
	C826.565979,1089.008423 826.353149,1089.435669 826.311646,1089.948364 
	C826.311646,1089.948364 826.241638,1090.301270 825.501465,1090.188721 
	C823.320068,1090.397339 821.878906,1090.718506 820.437744,1091.039673 
	C790.912415,1091.124023 761.387085,1091.208374 731.022461,1090.315308 
	C732.059082,1083.228882 732.132507,1077.223877 730.890686,1070.831665 
	C729.777405,1065.100952 729.306824,1058.791992 730.525635,1053.165405 
	C732.478394,1044.150269 732.023193,1035.527954 730.014587,1026.764771 
	C745.264404,1026.605225 760.514038,1026.340698 775.764160,1026.309570 
	C801.973511,1026.256104 828.183167,1026.348267 855.237427,1027.139648 
	C856.177185,1028.620361 856.272339,1029.340576 856.367554,1030.060791 
z"/>
<path fill="#486CF7" opacity="1.000000" stroke="none" 
	d="
M729.098145,1026.560059 
	C732.023193,1035.527954 732.478394,1044.150269 730.525635,1053.165405 
	C729.306824,1058.791992 729.777405,1065.100952 730.890686,1070.831665 
	C732.132507,1077.223877 732.059082,1083.228882 730.116638,1090.082031 
	C728.089600,1091.057495 726.128906,1091.491577 724.168579,1091.489990 
	C690.053223,1091.462402 655.937805,1091.381348 620.908081,1091.083740 
	C620.484131,1085.982544 621.072021,1081.116699 621.432617,1076.234009 
	C621.697632,1072.645386 622.014465,1069.004272 621.701660,1065.439697 
	C620.616333,1053.069946 619.266357,1040.723511 618.007568,1027.551025 
	C638.839172,1026.573364 659.679993,1026.353394 680.521301,1026.271362 
	C696.407776,1026.208740 712.294922,1026.320801 729.098145,1026.560059 
z"/>
<path fill="#ECBEC5" opacity="1.000000" stroke="none" 
	d="
M2579.241455,1029.875244 
	C2578.874756,1032.040161 2578.250244,1034.599365 2576.648926,1035.608643 
	C2569.187256,1040.311646 2568.135010,1043.997559 2572.485840,1051.444580 
	C2573.986572,1054.012939 2574.955078,1056.892090 2576.224365,1059.759521 
	C2574.208008,1060.407715 2573.537109,1060.878784 2573.017334,1060.748413 
	C2570.023438,1059.996704 2567.009277,1056.312134 2564.015869,1059.867554 
	C2560.769775,1063.723267 2565.354736,1065.508667 2566.968506,1068.063110 
	C2567.826172,1069.420654 2569.370850,1071.270386 2568.996826,1072.330444 
	C2566.422363,1079.627686 2572.539551,1084.122437 2574.709229,1089.707275 
	C2575.868896,1092.692261 2580.505371,1094.326660 2583.791504,1097.228516 
	C2575.615967,1095.908569 2567.304932,1093.403198 2558.810303,1092.055420 
	C2536.422119,1088.502808 2515.069580,1092.471924 2493.376465,1102.357666 
	C2491.377441,1103.047241 2490.688965,1103.525635 2490.000732,1104.004028 
	C2489.164551,1104.682739 2488.328369,1105.361572 2486.213867,1106.085449 
	C2483.317383,1107.505493 2481.699219,1108.880493 2480.081055,1110.255615 
	C2479.656738,1110.767822 2479.232666,1111.279907 2478.293945,1111.863037 
	C2474.251953,1111.739990 2470.724365,1111.546265 2466.739502,1111.327271 
	C2466.047119,1102.698608 2473.573242,1095.581787 2468.358154,1087.378662 
	C2465.046143,1087.378662 2461.514893,1087.378662 2457.837891,1087.378662 
	C2455.108643,1081.993164 2454.735840,1076.536499 2457.695557,1071.961304 
	C2461.384521,1066.258911 2464.026611,1060.641113 2462.420654,1053.420898 
	C2469.278809,1051.701050 2476.561523,1050.817017 2476.008545,1040.816040 
	C2476.986816,1039.427368 2477.954102,1038.821655 2480.034668,1038.592285 
	C2487.427002,1036.638916 2493.705566,1034.309204 2499.984375,1031.979614 
	C2520.202637,1025.341431 2540.967041,1024.975464 2561.872559,1026.827026 
	C2567.462891,1027.322266 2572.982178,1028.624023 2579.241455,1029.875244 
z"/>
<path fill="#ECBEC5" opacity="1.000000" stroke="none" 
	d="
M2467.097168,1359.331543 
	C2468.524170,1353.939209 2467.903809,1349.186646 2464.143799,1344.516602 
	C2462.685059,1342.704956 2462.309082,1338.468994 2463.421875,1336.408081 
	C2468.241455,1327.484619 2468.129395,1317.976318 2467.985107,1308.388306 
	C2467.876953,1301.211914 2470.363037,1295.561401 2477.693359,1291.986816 
	C2479.330811,1292.203979 2480.335938,1292.432251 2481.138184,1292.965820 
	C2508.596191,1311.230591 2538.410156,1316.369995 2571.266357,1309.006958 
	C2568.214111,1313.268311 2567.763672,1317.830933 2569.227051,1323.575928 
	C2571.235352,1331.459106 2572.872559,1339.429199 2570.934082,1347.998291 
	C2569.853027,1352.777710 2571.682861,1358.454590 2573.062500,1363.490845 
	C2574.790527,1369.797974 2577.474121,1370.999268 2584.155762,1369.969849 
	C2586.397705,1369.624634 2588.656982,1369.389038 2591.419434,1369.462036 
	C2573.866699,1376.421997 2555.048340,1377.963379 2536.088867,1377.227417 
	C2513.328125,1376.343628 2491.457520,1371.104858 2469.930420,1360.571533 
	C2468.464355,1359.555542 2467.788086,1359.455322 2467.112061,1359.355103 
	C2467.112061,1359.355103 2467.121582,1359.296143 2467.097168,1359.331543 
z"/>
<path fill="#AAD5E9" opacity="1.000000" stroke="none" 
	d="
M1545.158203,1207.528076 
	C1542.608032,1208.377808 1539.244751,1209.830078 1535.860840,1209.879761 
	C1519.340576,1210.121948 1502.814697,1209.989258 1485.385498,1209.972290 
	C1487.536255,1209.394775 1490.582153,1208.417114 1493.650146,1208.343140 
	C1510.542358,1207.934814 1527.439819,1207.747437 1545.158203,1207.528076 
z"/>
<path fill="#94DFF8" opacity="1.000000" stroke="none" 
	d="
M1381.098145,1377.355591 
	C1392.292358,1376.806641 1404.399536,1376.596069 1416.489502,1376.020630 
	C1422.341553,1375.742065 1428.161011,1374.779541 1434.812866,1374.065796 
	C1436.241943,1378.498779 1432.892090,1377.610596 1430.490723,1377.614990 
	C1414.328491,1377.644165 1398.166138,1377.578613 1381.098145,1377.355591 
z"/>
<path fill="#E4C2CB" opacity="1.000000" stroke="none" 
	d="
M2499.200195,1031.927734 
	C2493.705566,1034.309204 2487.427002,1036.638916 2480.617188,1038.627319 
	C2486.196045,1036.149414 2492.306152,1034.012695 2499.200195,1031.927734 
z"/>
<path fill="#ECBEC5" opacity="1.000000" stroke="none" 
	d="
M2452.029297,1351.091797 
	C2452.813232,1348.625854 2453.852295,1346.620728 2454.891357,1344.615479 
	C2455.692383,1344.881348 2456.493652,1345.147217 2457.294922,1345.413086 
	C2456.952637,1347.645508 2456.610107,1349.877808 2456.129883,1352.747803 
	C2454.756104,1352.774292 2453.520264,1352.163330 2452.029297,1351.091797 
z"/>
<path fill="#94DFF8" opacity="1.000000" stroke="none" 
	d="
M1435.828979,1107.075928 
	C1435.399536,1103.686279 1435.160034,1099.439209 1435.307739,1094.569580 
	C1435.802979,1098.037476 1435.911011,1102.128052 1435.828979,1107.075928 
z"/>
<path fill="#AAD5E9" opacity="1.000000" stroke="none" 
	d="
M1561.011719,1201.610107 
	C1560.486816,1205.017334 1557.771606,1205.956665 1553.597290,1205.651245 
	C1555.311646,1204.288818 1557.811768,1203.005859 1561.011719,1201.610107 
z"/>
<path fill="#E4C2CB" opacity="1.000000" stroke="none" 
	d="
M2480.714844,1110.128906 
	C2481.699219,1108.880493 2483.317383,1107.505493 2485.660400,1106.128418 
	C2484.706299,1107.418335 2483.027588,1108.710327 2480.714844,1110.128906 
z"/>
<path fill="#AAD5E9" opacity="1.000000" stroke="none" 
	d="
M1567.120361,1197.707520 
	C1566.126465,1198.921509 1564.515625,1200.270142 1562.225342,1201.616455 
	C1563.198486,1200.356689 1564.850830,1199.099365 1567.120361,1197.707520 
z"/>
<path fill="#88D1FC" opacity="1.000000" stroke="none" 
	d="
M1579.182129,1185.992188 
	C1578.907471,1187.070068 1578.099854,1188.366577 1576.691650,1189.807617 
	C1576.943604,1188.704956 1577.796265,1187.457886 1579.182129,1185.992188 
z"/>
<path fill="#3E5DF2" opacity="1.000000" stroke="none" 
	d="
M820.995972,1091.277222 
	C821.878906,1090.718506 823.320068,1090.397339 825.322510,1090.170410 
	C824.440552,1090.681274 822.997314,1091.098022 820.995972,1091.277222 
z"/>
<path fill="#3E5DF2" opacity="1.000000" stroke="none" 
	d="
M856.775208,1029.809814 
	C856.272339,1029.340576 856.177185,1028.620361 856.167725,1027.357910 
	C856.563232,1027.730103 856.873108,1028.644531 856.775208,1029.809814 
z"/>
<path fill="#94DFF8" opacity="1.000000" stroke="none" 
	d="
M1435.823730,1369.302246 
	C1435.442749,1368.877686 1435.247559,1367.820923 1435.345703,1366.425293 
	C1435.762695,1366.947632 1435.886108,1367.808716 1435.823730,1369.302246 
z"/>
<path fill="#3E5DF2" opacity="1.000000" stroke="none" 
	d="
M826.718201,1089.866943 
	C826.353149,1089.435669 826.565979,1089.008423 827.260620,1088.478760 
	C827.777283,1088.895508 827.628479,1089.393677 826.718201,1089.866943 
z"/>
<path fill="#94DFF8" opacity="1.000000" stroke="none" 
	d="
M1373.620972,1027.881226 
	C1373.655640,1028.054321 1373.792480,1028.000366 1373.856812,1027.958130 
	C1373.921143,1027.915894 1373.446655,1028.020264 1373.446655,1028.020264 
	C1373.446655,1028.020264 1373.586304,1027.708130 1373.620972,1027.881226 
z"/>
<path fill="#E4C2CB" opacity="1.000000" stroke="none" 
	d="
M2467.498047,1359.692139 
	C2467.788086,1359.455322 2468.464355,1359.555542 2469.500000,1360.039185 
	C2469.201172,1360.291504 2468.542725,1360.160278 2467.498047,1359.692139 
z"/>
<path fill="#AAD5E9" opacity="1.000000" stroke="none" 
	d="
M1484.083862,1272.721558 
	C1484.562500,1272.716919 1484.966919,1273.292358 1485.477051,1274.386475 
	C1485.058594,1274.370605 1484.534058,1273.836182 1484.083862,1272.721558 
z"/>
<path fill="#AAD5E9" opacity="1.000000" stroke="none" 
	d="
M1551.399170,1205.879883 
	C1551.641724,1206.581421 1551.206909,1206.838135 1550.344238,1206.516724 
	C1550.121460,1206.332397 1550.927002,1205.828857 1551.399170,1205.879883 
z"/>
<path fill="#88D1FC" opacity="1.000000" stroke="none" 
	d="
M1571.442627,1194.150879 
	C1571.652710,1194.628296 1571.244995,1195.099365 1570.294800,1195.674561 
	C1570.231323,1195.339233 1570.588867,1194.794556 1571.442627,1194.150879 
z"/>
<path fill="#88D1FC" opacity="1.000000" stroke="none" 
	d="
M1581.083740,1183.297607 
	C1581.267944,1183.678589 1580.946899,1184.373047 1580.168457,1185.423950 
	C1580.000122,1185.057129 1580.289307,1184.333984 1581.083740,1183.297607 
z"/>
<path fill="#94DFF8" opacity="1.000000" stroke="none" 
	d="
M1436.520996,1092.477783 
	C1436.583130,1092.438721 1436.467407,1092.577271 1436.394531,1092.585571 
	C1436.321777,1092.593872 1436.458740,1092.516846 1436.520996,1092.477783 
z"/>
<path fill="#E4C2CB" opacity="1.000000" stroke="none" 
	d="
M2490.657227,1103.935791 
	C2490.688965,1103.525635 2491.377441,1103.047241 2492.680176,1102.396240 
	C2492.634033,1102.771484 2491.973877,1103.319580 2490.657227,1103.935791 
z"/>
</svg>